<?xml version="1.0" encoding="UTF-8" standalone="no"?> <svg xmlns="http://www.w3.org/2000/svg" viewBox="0 0 32 32"><defs><style>.cls-1{fill:#a96555;}.cls-2{fill:#8e5449;}.cls-3{fill:#844c3e;}.cls-4{fill:#683b32;}</style></defs><title>chocolate 1</title><g id="chocolate_1" data-name="chocolate 1"><path class="cls-1" d="M29,9.66V29a1,1,0,0,1-1,1H4a1,1,0,0,1-1-1V3A1,1,0,0,1,4,2H9.93A1,1,0,0,1,11,3a5,5,0,0,0,2,4,5,5,0,0,0,6,0,5.44,5.44,0,0,0,.88-.85A1.29,1.29,0,0,1,20.05,6a1.05,1.05,0,0,1,.84-.19l.11,0a1,1,0,0,1,.56.47A5,5,0,0,0,26,9a5.27,5.27,0,0,0,1.67-.28,1,1,0,0,1,.91.12A1,1,0,0,1,29,9.66Z"/><path class="cls-2" d="M28.58,8.84a1,1,0,0,0-.91-.12A5.27,5.27,0,0,1,26,9a5,5,0,0,1-4.44-2.69A1,1,0,0,0,21,5.84l-.11,0a1.05,1.05,0,0,0-.84.19,1.29,1.29,0,0,0-.17.16A5.44,5.44,0,0,1,19,7a4.94,4.94,0,0,1-3,1V30H28a1,1,0,0,0,1-1V9.66A1,1,0,0,0,28.58,8.84Z"/><path class="cls-3" d="M13,20V14h3V12H13V7a5,5,0,0,1-2-4v9H3v2h8v6H3v2h8v8h2V22h3V20Z"/><path class="cls-4" d="M19,30h2V22h8V20H21V14h8V12H21V5.84l-.11,0a1.05,1.05,0,0,0-.84.19,1.29,1.29,0,0,0-.17.16A5.44,5.44,0,0,1,19,7v5H16v2h3v6H16v2h3Z"/><path class="cls-3" d="M5,28V4H9.07A7,7,0,0,0,16,10V8a5,5,0,0,1-5-5A1,1,0,0,0,9.93,2H4A1,1,0,0,0,3,3V29a1,1,0,0,0,1,1H16V28Z"/><path class="cls-4" d="M28.58,8.84a1,1,0,0,0-.91-.12A5.27,5.27,0,0,1,26,9a5,5,0,0,1-4.44-2.69,1,1,0,0,0-.67-.51,1.05,1.05,0,0,0-.84.19,1.29,1.29,0,0,0-.17.16A5,5,0,0,1,16,8v2a7,7,0,0,0,4.51-1.65A7,7,0,0,0,26,11a6.63,6.63,0,0,0,1-.07V28H16v2H28a1,1,0,0,0,1-1V9.66A1,1,0,0,0,28.58,8.84Z"/></g></svg>